ffmpeg version N-102852-g758e2da289 Copyright (c) 2000-2021 the FFmpeg developers
  built with gcc 7 (Ubuntu 7.5.0-3ubuntu1~18.04)
  configuration: --prefix=/home/aleksandr/ffmpeg_debug_build --pkg-config-flags=--static --extra-cflags=-I/home/aleksandr/ffmpeg_debug_build/include --extra-ldflags=-L/home/aleksandr/ffmpeg_debug_build/lib --extra-libs='-lpthread -lm' --bindir=/home/aleksandr/bin_debug --enable-gpl --enable-libass --enable-libfdk-aac --enable-libfreetype --enable-libmp3lame --enable-libopus --enable-libtheora --enable-libvorbis --enable-libvpx --enable-libx264 --enable-libx265 --enable-nonfree
  libavutil      57.  0.100 / 57.  0.100
  libavcodec     59.  3.101 / 59.  3.101
  libavformat    59.  4.100 / 59.  4.100
  libavdevice    59.  0.100 / 59.  0.100
  libavfilter     8.  0.103 /  8.  0.103
  libswscale      6.  0.100 /  6.  0.100
  libswresample   4.  0.100 /  4.  0.100
  libpostproc    56.  0.100 / 56.  0.100
Input #0, avi, from '../.././Samples/divx4b153_badmacroblock.avi':
  Duration: 00:00:44.00, start: 0.000000, bitrate: 917 kb/s
  Stream #0:0: Video: msmpeg4v3 (DIV3 / 0x33564944), yuv420p, 576x312, 775 kb/s, 25 fps, 25 tbr, 25 tbn
  Stream #0:1: Audio: mp3 (U[0][0][0] / 0x0055), 44100 Hz, stereo, fltp, 127 kb/s
File '/home/aleksandr/Debug-release_tests/Debug/Samples/divx4b153_badmacroblock.avi_tc/output_std5.mov' already exists. Overwrite? [y/N] Command terminated by signal 2
	Command being timed: "/home/aleksandr/bin_debug/ffmpeg -i ../.././Samples/divx4b153_badmacroblock.avi -c:v libx264 -f mov /home/aleksandr/Debug-release_tests/Debug/Samples/divx4b153_badmacroblock.avi_tc/output_std5.mov"
	User time (seconds): 0.03
	System time (seconds): 0.01
	Percent of CPU this job got: 0%
	Elapsed (wall clock) time (h:mm:ss or m:ss): 52:31.48
	Average shared text size (kbytes): 0
	Average unshared data size (kbytes): 0
	Average stack size (kbytes): 0
	Average total size (kbytes): 0
	Maximum resident set size (kbytes): 19668
	Average resident set size (kbytes): 0
	Major (requiring I/O) page faults: 20
	Minor (reclaiming a frame) page faults: 1439
	Voluntary context switches: 47
	Involuntary context switches: 0
	Swaps: 0
	File system inputs: 1912
	File system outputs: 8
	Socket messages sent: 0
	Socket messages received: 0
	Signals delivered: 0
	Page size (bytes): 4096
	Exit status: 0
